<svg id="b" xmlns="http://www.w3.org/2000/svg" width="139.862" height="276.06" viewBox="0 0 139.862 276.06" style="color: initial !important;"><defs><style>.d{fill:#ffffff;}.e{fill:#fff2e1;}.f{fill:#a98a75;}.g{fill:#211715;}</style></defs><g id="c"><path class="f" d="M61.255,207.095c2.416,6.017,2.411,12.966-.013,18.98-4.364,10.827-17.089,17.984-18.173,30.22-.869,9.809,7.536,18.157,17.289,17.377,5.271-.421,10.184-3.262,13.686-7.224,7.517-8.505,8.972-21.29,8.462-32.174-.424-9.034-2.305-17.928-4.18-26.776"/><path class="g" d="M58.941,207.733c2.175,5.558,2.32,11.712.145,17.302-1.658,4.26-4.73,7.844-7.644,11.292-6.217,7.354-13.131,16.084-10.122,26.384,3.001,10.27,14.281,15.821,24.295,12.279,11.026-3.9,16.769-15.022,18.529-25.961,2.277-14.159-.57-28.328-3.503-42.167-.64-3.02-5.268-1.742-4.629,1.276,2.482,11.713,4.932,23.583,3.968,35.622-.766,9.568-4.092,20.351-12.98,25.365-3.971,2.24-8.77,2.963-13.059,1.184-3.69-1.529-6.693-4.742-7.895-8.554-2.814-8.92,4.173-16.54,9.456-22.823,3.347-3.981,6.568-8.086,8.364-13.026,2.256-6.205,2.104-13.315-.296-19.449-.472-1.206-1.609-2.045-2.952-1.676-1.151.316-2.151,1.738-1.676,2.952h0Z"/><path class="f" d="M123.398,89.704c-.25.216-.513.43-.784.643-1.849,1.636-3.97,3.171-6.347,4.6-.117,5.574-3.415,10.883-8.058,14.638-6.284,5.145-12.905,6.598-19.657,4.624-1.902-.556-4.504-2.175-6.474-2.246-3.919-.14-5.549.506-7.414,2.208-2.669,2.436-3.707,5.515-3.63,8.482-.724,0-1.448,0-2.172,0,.074-2.967-.963-6.046-3.633-8.482-1.865-1.702-3.495-2.348-7.414-2.208-1.97.07-4.572,1.69-6.474,2.246-6.752,1.973-13.374.521-19.657-4.624-4.643-3.755-7.94-9.064-8.058-14.638-2.377-1.429-4.498-2.964-6.347-4.6-.271-.213-.535-.428-.785-.643-9.999,17.009-14.381,37.201-14.027,56.837.287,15.946,4.122,32.842,15.645,44.801.232.241.466.48.702.716,6.031,6.049,13.005,10.367,21.584,12.832,9.452,2.716,19.758,3.927,29.55,3.927s20.098-1.211,29.55-3.927c8.914-2.562,16.095-7.123,22.285-13.548,11.523-11.959,15.357-28.855,15.645-44.801.353-19.636-4.029-39.828-14.027-56.837Z"/><path class="e" d="M8.751,16.826c.195-.365.425-.722.694-1.067,2.113-2.717,5.595-3.797,9.108-4.522,5.842-1.206,11.899-1.432,17.683-.657,10.173-5.274,21.578-8.141,33.05-8.202h1.319c11.471.062,22.877,2.928,33.05,8.202,5.784-.775,11.84-.549,17.683.657,3.512.725,6.995,1.805,9.108,4.522,2.149,2.764,1.829,6.224.77,9.253-1.187,3.395-3.87,6.994-6.619,10.07,0,0-.109.122-.312.351,3.013,7.367,5.465,14.942,6.411,22.557,1.219,9.813,1.594,20.012-4.262,28.277-1.052,1.973-5.349,6.138-10.19,7.417.401,6.029-3.041,11.863-8.034,15.901-6.284,5.145-12.905,6.598-19.657,4.624-1.902-.556-4.504-2.175-6.474-2.246-3.919-.14-5.549.506-7.414,2.208-2.669,2.436-3.707,5.515-3.63,8.482-.724,0-1.448,0-2.172,0,.075-2.967-.963-6.046-3.633-8.482-1.865-1.702-3.495-2.348-7.414-2.208-1.97.07-4.572,1.69-6.474,2.246-6.752,1.973-13.374.521-19.657-4.624-4.993-4.038-8.435-9.872-8.034-15.901-4.842-1.279-9.138-5.444-10.19-7.417-5.856-8.265-5.481-18.464-4.262-28.277.946-7.614,3.398-15.189,6.413-22.557l-.314-.351c-2.749-3.076-5.432-6.676-6.619-10.07-.927-2.651-1.288-5.631.076-8.186Z"/><path class="g" d="M72.966,72.336c-2.164.669-7.137.249-7.549-3.834.047-5.397,6.062-5.699,8.884-3.89,2.311,1.482,3.262,5.853-1.335,7.723Z"/><path class="g" d="M43.127,50.84c-.881,2.851-.327,9.403,5.051,9.946,7.111-.062,7.509-7.986,5.125-11.705-1.952-3.045-7.712-4.298-10.176,1.758Z"/><path class="g" d="M96.762,50.84c.881,2.851.328,9.404-5.051,9.947-7.111-.062-7.51-7.987-5.125-11.706,1.952-3.045,7.712-4.298,10.176,1.759Z"/><path class="g" d="M59.2,78.658c3.298,4.324,11.022,5.39,13.8-.141h-4.145c1.268,2.524,3.95,3.989,6.753,3.774,2.78-.213,5.149-1.489,6.833-3.701.786-1.032.162-2.685-.861-3.284-1.233-.721-2.496-.174-3.284.861.085-.112-.392.371-.519.473.211-.169-.207.128-.268.166-.152.093-.307.179-.465.261-.085.043-.353.157-.664.248-.169.049-.339.092-.512.129-.067.014-.593.074-.26.047-.332.026-.67.031-1.001,0,.259.025.077.022-.073-.023-.164-.049-.333-.082-.494-.144.181.071-.196-.138-.191-.135.038.027-.24-.196-.302-.26-.196-.202-.383-.506-.548-.834-.787-1.566-3.358-1.566-4.145,0-.163.325-.349.63-.548.834-.169.173-.451.378-.493.395-.156.061-.322.088-.479.141-.409.137.112.016-.151.033-.365.024-.723.022-1.088-.002-.123-.008-.364-.062-.11-.013-.167-.032-.334-.067-.5-.108-.267-.067-.839-.259-.929-.3-.108-.05-.593-.323-.829-.496.272.2-.598-.623-.384-.342-.785-1.029-2.068-1.572-3.284-.861-1.013.593-1.652,2.247-.861,3.284h0Z"/><path class="g" d="M68.528,73.128v3.087c0,.615.268,1.262.703,1.697.217.234.475.399.772.496.286.15.594.219.925.207.621-.028,1.264-.232,1.697-.703s.703-1.047.703-1.697v-3.087c0-.615-.268-1.262-.703-1.697-.217-.234-.475-.399-.772-.496-.286-.15-.594-.219-.925-.207-.621.028-1.264.232-1.697.703s-.703,1.047-.703,1.697h0Z"/><path class="g" d="M121.294,90.86c10.756,18.37,15.056,40.406,13.46,61.547-.717,9.501-2.907,19.101-7.541,27.492-4.701,8.512-12.005,15.505-20.745,19.784-4.812,2.356-10.062,3.711-15.299,4.745-5.626,1.111-11.338,1.717-17.067,1.917-11.359.397-22.973-.686-33.876-4.007-9.348-2.847-17.754-8.696-23.688-16.473-5.897-7.73-9.098-17.125-10.622-26.644-1.604-10.018-1.407-20.472-.055-30.507,1.437-10.661,4.386-21.227,9.048-30.936,1.132-2.357,2.364-4.662,3.685-6.917,1.564-2.671-2.583-5.09-4.145-2.423C3.173,107.698-1.458,131.02.398,153.192c.867,10.357,3.323,20.733,8.52,29.816,5.103,8.92,13.001,16.417,22.26,20.907,10.513,5.099,22.81,6.795,34.378,7.222,11.947.441,24.339-.708,35.783-4.293,10.001-3.133,18.97-9.326,25.419-17.597,6.401-8.21,10.096-18.147,11.781-28.36,1.763-10.686,1.68-21.669.261-32.39-1.501-11.336-4.576-22.406-9.487-32.749-1.184-2.493-2.479-4.929-3.873-7.31-1.56-2.664-5.71-.251-4.145,2.423h0Z"/><path class="g" d="M23.818,91.237c-6.885-2.201-10.776-8.559-12.237-15.352-.85-3.95-.841-8.049-.567-12.063.293-4.286.877-8.536,1.891-12.713,1.248-5.144,3.023-10.141,5.018-15.037.325-.799-.091-1.746-.617-2.335-3.04-3.402-6.761-7.698-7.035-12.494-.297-5.183,4.712-6.821,8.921-7.691,2.712-.561,5.458-.883,8.225-.986,1.401-.052,2.805-.049,4.205.01,1.519.064,3.106.432,4.614.404,1.278-.024,2.703-1.091,3.848-1.628,1.246-.584,2.507-1.13,3.789-1.632,2.596-1.017,5.25-1.885,7.945-2.601,10.416-2.765,21.509-3.13,32.075-.98,5.402,1.099,10.709,2.791,15.71,5.116,1.196.556,2.714,1.713,4.053,1.723,1.437.011,2.936-.326,4.381-.394,2.886-.135,5.784-.033,8.653.302,4.231.495,12.035,1.364,12.883,6.711.841,5.301-3.767,10.508-6.986,14.137-.524.591-.943,1.534-.617,2.335,3.425,8.411,5.973,17.009,6.775,26.081.354,4.008.528,8.152-.134,12.139s-2.091,7.46-4.295,10.844c-.73,1.12-1.71,2.137-2.942,3.149-1.565,1.286-3.371,2.336-5.302,2.953-2.931.937-1.678,5.573,1.276,4.629,7.994-2.555,13.27-9.605,15.311-17.522,1.112-4.313,1.318-8.838,1.092-13.27-.241-4.728-.825-9.486-1.87-14.104-1.254-5.542-3.142-10.917-5.283-16.173l-.617,2.335c4.462-5.032,9.631-11.597,8.22-18.807-1.519-7.762-10.751-9.419-17.278-10.207-4.409-.532-8.865-.506-13.268.063l1.211.328C88.056-.141,68.375-2.361,50.104,2.609c-5.217,1.419-10.274,3.426-15.08,5.899l1.211-.328c-3.858-.499-7.755-.584-11.631-.236-3.632.326-7.445.836-10.877,2.128-3.41,1.284-6.354,3.454-7.672,6.962-1.218,3.241-.456,6.919.858,10,1.615,3.784,4.277,7.052,6.998,10.097l-.617-2.335c-3.763,9.235-6.313,18.642-7.05,28.61-.647,8.752.46,17.414,5.575,24.759,2.51,3.605,6.573,6.375,10.723,7.702,2.949.943,4.212-3.69,1.276-4.629h0Z"/><path class="g" d="M28.829,159.416c-6.168,3.982-6.251,12.168-4.534,18.564,1.737,6.469,6.201,13.074,12.3,16.157,2.771,1.401,6.106,2.109,9.082.919,3.556-1.421,5.461-4.954,6.07-8.585.704-4.199.573-8.49-.046-12.689-.491-3.329-1.424-6.619-3.358-9.418-1.967-2.847-4.664-5.073-7.978-6.155-3.745-1.222-8.134-.758-11.537,1.207-2.674,1.544-.26,5.694,2.423,4.145,4.178-2.413,9.331-1.108,12.352,2.454,3.667,4.323,4.038,10.94,3.774,16.33-.124,2.52-.315,5.951-2.453,7.682-1.519,1.23-3.534.966-5.29.25-4.633-1.887-8.329-6.824-10.017-11.389-1.636-4.424-3.138-12.246,1.635-15.327,2.586-1.67.183-5.827-2.423-4.145Z"/><path class="g" d="M108.637,163.561c4.237,2.736,3.41,9.319,2.241,13.459-1.429,5.062-4.795,10.026-9.433,12.664-1.705.97-3.891,1.651-5.676.858-2.136-.948-2.821-3.808-3.082-5.937-.414-3.373-.315-6.91.24-10.261.422-2.549,1.081-4.97,2.494-7.157,2.816-4.358,8.535-6.331,13.216-3.627,2.68,1.548,5.1-2.599,2.423-4.145-5.854-3.381-13.474-2-17.96,2.968-4.983,5.518-5.845,13.802-5.33,20.922.267,3.697,1.032,7.826,4.05,10.326,2.564,2.124,5.981,2.478,9.102,1.487,6.595-2.095,11.544-8.529,13.91-14.774,2.566-6.772,3.08-16.505-3.772-20.929-2.603-1.68-5.012,2.473-2.423,4.145Z"/><path class="d" d="M70.015,93.533c-2.083-.009-4.166.547-6.108,1.702-1.334.793-2.131.957-3.643.662-5.946-1.16-11.641,4.227-12.813,10.171-1.344,6.811,1.559,13.972,4.878,19.801,2.186,3.84,5.12,7.213,9.269,8.946,2.498,1.043,5.21,1.515,7.915,1.601,4.529.143,9.423-.848,12.943-3.868,2.317-1.988,3.802-4.402,5.276-7.036,1.567-2.8,2.997-5.698,3.947-8.771,2.101-6.801,1.633-15.884-5.424-19.644-1.262-.672-2.656-1.091-4.077-1.242-.758-.08-1.524-.084-2.283-.009-.661.065-1.302.361-1.966.25-.663-.111-1.22-.539-1.804-.873-1.941-1.107-4.025-1.682-6.109-1.69Z"/><path class="g" d="M70.015,91.133c-1.327.018-2.675.183-3.95.559-.748.221-1.482.52-2.189.85-.624.29-1.216.775-1.863.992-.741.249-1.63-.064-2.448-.144-1.235-.12-2.505,0-3.71.295-4.769,1.169-8.436,5.208-10.125,9.679-1.937,5.126-.94,11.123.927,16.111,1.826,4.879,4.362,9.954,8.143,13.622,7.503,7.277,21.784,7.979,29.662.872,1.934-1.744,3.432-3.945,4.735-6.183,1.464-2.516,2.788-5.112,3.871-7.816,1.611-4.025,2.466-8.456,1.959-12.792-.572-4.889-2.861-9.488-7.264-11.991-1.393-.792-2.94-1.349-4.523-1.595-.805-.125-1.618-.213-2.433-.2-.777.013-1.583.304-2.337.286-.3-.007-.834-.362-1.329-.636-.751-.415-1.556-.769-2.362-1.063-1.523-.557-3.147-.812-4.764-.848-3.09-.069-3.089,4.731,0,4.8,1.069.024,2.066.196,3.083.534,1.16.385,2.128,1.108,3.233,1.6,1.354.603,2.41.338,3.807.155,1.091-.143,2.243.017,3.293.314,3.288.93,5.512,3.621,6.398,6.815,2.131,7.688-1.958,16.174-6.264,22.385-2.485,3.584-6.132,5.616-10.442,6.143-4.351.532-9.174-.061-12.888-2.511-3.596-2.373-5.805-6.335-7.633-10.118-2.005-4.149-3.482-8.816-3.002-13.473.402-3.9,2.996-8.032,6.874-9.276,2.194-.704,4.284.277,6.467-.244,1.227-.293,2.219-1.081,3.358-1.571,1.185-.51,2.434-.735,3.716-.753,3.086-.043,3.095-4.843,0-4.8Z"/><path class="g" d="M67.545,105.507c0,4.041,0,8.083,0,12.124,0,1.255,1.104,2.458,2.4,2.4s2.4-1.055,2.4-2.4c0-4.041,0-8.083,0-12.124,0-1.255-1.104-2.458-2.4-2.4s-2.4,1.055-2.4,2.4h0Z"/><path class="g" d="M57.305,108.286c-.087,2.336.01,4.698.537,6.983.282,1.225,1.755,2.064,2.952,1.676,1.281-.414,1.978-1.64,1.676-2.952-.116-.506-.208-1.016-.28-1.53l.086.638c-.213-1.596-.231-3.208-.171-4.815.047-1.256-1.137-2.457-2.4-2.4-1.34.06-2.35,1.054-2.4,2.4h0Z"/><path class="g" d="M77.784,108.286c.06,1.607.042,3.219-.171,4.815l.086-.638c-.072.514-.163,1.024-.28,1.53-.143.623-.086,1.289.242,1.849.291.498.862.973,1.434,1.103,1.224.279,2.651-.368,2.952-1.676.526-2.286.623-4.647.537-6.983-.023-.63-.252-1.246-.703-1.697-.416-.416-1.099-.73-1.697-.703-1.26.056-2.45,1.056-2.4,2.4h0Z"/><path class="f" d="M92.599,134.037c-5.784.942-12.178.637-14.615-.505-1.747-.819-4.17-3.231-4.939-4.408-2.71-4.15-3.17-10.584,1.616-14.952,1.865-1.702,3.495-2.348,7.414-2.208,1.97.07,4.572,1.69,6.474,2.246,6.752,1.973,13.374.521,19.657-4.624,4.527-3.661,7.779-8.799,8.056-14.22"/><path class="f" d="M23.625,95.366c.278,5.421,3.53,10.559,8.056,14.22,6.284,5.145,12.905,6.598,19.657,4.624,1.902-.556,4.504-2.175,6.474-2.246,3.919-.14,5.549.506,7.414,2.208,4.786,4.367,4.327,10.802,1.616,14.952-.769,1.177-3.192,3.589-4.939,4.408-2.437,1.142-8.831,1.448-14.615.505"/><path class="g" d="M91.961,131.723c-3.282.515-6.726.664-10.034.296-.967-.107-1.991-.268-2.899-.633.525.211-.33-.192-.348-.202-.281-.164-.556-.347-.816-.543-.497-.374-.961-.81-1.405-1.244-3.065-2.991-4.317-8.446-1.253-12.325,1.458-1.845,2.876-2.635,5.214-2.717,1.374-.048,2.454.116,3.743.64,1.379.561,2.705,1.243,4.146,1.64,6.51,1.795,13.314.427,18.878-3.315,6.13-4.123,10.992-10.377,11.477-17.955.083-1.295-1.162-2.4-2.4-2.4-1.368,0-2.317,1.101-2.4,2.4-.417,6.517-5.521,11.936-10.979,14.964-2.826,1.568-5.961,2.418-9.2,2.317-1.525-.048-3.036-.304-4.496-.751-1.535-.47-2.945-1.271-4.461-1.798-5.845-2.032-12.148.896-14.755,6.38-2.549,5.362-1.3,11.88,2.845,16.07,1.15,1.163,2.475,2.336,3.955,3.057,1.402.683,2.918.938,4.451,1.132,3.992.505,8.05.237,12.012-.385,1.282-.201,1.992-1.804,1.676-2.952-.375-1.366-1.667-1.878-2.952-1.676h0Z"/><path class="g" d="M21.225,95.366c.849,13.271,15.101,23.805,27.979,21.777,1.389-.219,2.751-.553,4.054-1.086,1.441-.59,2.979-1.528,4.551-1.707,2.088-.238,4.189.182,5.506,1.329,1.935,1.684,3.116,3.955,3.147,6.543.013,1.095-.155,2.128-.482,3.175-.269.862-.95,2.197-1.258,2.604-.803,1.059-1.882,2.08-2.974,2.839-.258.179-.526.344-.802.494-.311.15-.339.168-.086.055-.153.057-.308.109-.464.156-.564.157-1.13.29-1.708.382-3.498.556-7.279.345-10.761-.201-1.279-.201-2.582.327-2.952,1.676-.313,1.14.388,2.75,1.676,2.952,3.612.567,7.295.838,10.945.503,3.028-.278,5.503-.926,7.891-2.871,4.516-3.679,6.911-9.582,5.266-15.339-.861-3.014-2.821-5.627-5.383-7.411-2.221-1.547-5.237-1.895-7.874-1.646-1.672.158-3.169.814-4.694,1.477-1.457.634-2.905,1.118-4.479,1.385-3.099.525-6.333.088-9.233-1.099-6.367-2.606-12.606-8.81-13.065-15.985-.083-1.294-1.044-2.4-2.4-2.4-1.235,0-2.483,1.1-2.4,2.4h0Z"/></g></svg>