<svg id="b" xmlns="http://www.w3.org/2000/svg" width="224.79" height="241.824" viewBox="0 0 224.79 241.824" style="color: initial !important;"><defs><style>.d{fill:#ffffff;}.e{fill:#211715;}</style></defs><g id="c"><path class="d" d="M156.94,225.628s2.576.73,3.435.973c6.354,1.799,13.759,1.933,18.875,1.63,4.626-.274,9.424-1.627,12.638-4.966,4.586-4.765,4.156-13.035-2.822-15.021v-11.637c0-33.539-9.483-67.167-26.636-95.955,8.044-4.362,13.434-12.794,15.451-21.733,2.059-9.074.959-18.627-1.58-27.581-1.205-4.263-2.72-8.27-4.521-12.009,8.619-4.805,10.166-15.673,6.328-24.004-2.661-5.776-7.693-10.561-13.811-12.298-7.27-2.064-16.609.59-19.853,8.05-9.322-4.71-20.129-7.151-31.966-7.06h-.109c-11.884-.091-22.73,2.37-32.074,7.123-3.224-7.51-12.592-10.183-19.881-8.114-6.118,1.737-11.15,6.522-13.811,12.298-3.855,8.369-2.277,19.298,6.444,24.073-1.799,3.715-3.303,7.701-4.501,11.94-2.538,8.954-3.638,18.507-1.58,27.581,2.014,8.926,7.391,17.346,15.415,21.714-17.16,28.792-26.647,62.428-26.647,95.974v11.637c-6.978,1.986-7.408,10.256-2.822,15.021,3.214,3.339,8.012,4.692,12.638,4.966,5.116.303,12.521.168,18.875-1.63.859-.243,3.435-.973,3.435-.973l36.243-.752h16.504l36.332.752Z"/><path class="e" d="M60.176,99.636c-8.567,14.465-15.238,30.07-19.78,46.256s-6.974,33.014-7.057,49.827c-.018,3.703-.002,7.407-.002,11.11,0,3.089,4.8,3.094,4.8,0,0-10.76.037-21.464,1.34-32.17,1.99-16.349,6.274-32.451,12.46-47.707,3.486-8.596,7.659-16.914,12.385-24.893,1.578-2.664-2.57-5.081-4.145-2.423h0Z"/><path class="e" d="M35.098,205.93c-3.617,1.095-6.556,3.825-7.331,7.612-.765,3.735.313,7.542,2.661,10.503,5.727,7.223,16.621,7.172,24.958,6.495,4.508-.366,8.781-1.371,13.115-2.598,2.967-.84,1.706-5.473-1.276-4.629-2.904.822-5.785,1.662-8.781,2.094-3.913.565-7.917.652-11.862.476-3.651-.163-7.358-.835-10.414-2.962-2.256-1.571-3.755-4.097-3.856-6.569-.11-2.69,1.172-4.919,4.063-5.795,2.949-.893,1.692-5.527-1.276-4.629h0Z"/><path class="e" d="M160.481,102.058c8.405,14.192,14.919,29.437,19.356,45.324s6.784,32.296,6.828,48.781c.009,3.555,0,7.11,0,10.666,0,3.089,4.8,3.094,4.8,0,0-10.985-.053-21.907-1.421-32.833-2.095-16.721-6.346-33.128-12.718-48.733-3.61-8.84-7.834-17.411-12.701-25.628-1.573-2.656-5.724-.244-4.145,2.423h0Z"/><path class="e" d="M188.428,210.558c1.167.353,2.314,1.06,2.889,1.785.293.369.699,1.143.763,1.312.189.496.374,1.387.391,1.599.203,2.591-.819,4.996-2.83,6.852-2.659,2.453-6.482,3.442-10.005,3.699-3.897.284-7.853.206-11.737-.208-3.536-.377-6.913-1.319-10.321-2.284-2.977-.843-4.248,3.787-1.276,4.629,3.694,1.046,7.334,1.97,11.162,2.408,4.502.514,9.212.664,13.719.102,4.551-.567,9.15-2.105,12.402-5.49,2.466-2.567,4.003-6.254,3.676-9.844-.409-4.475-3.261-7.888-7.557-9.188-2.963-.897-4.229,3.734-1.276,4.629h0Z"/><path class="e" d="M104.104,227.275h16.504c1.297,0,2.4-1.103,2.4-2.4s-1.098-2.4-2.4-2.4h-16.504c-1.297,0-2.4,1.103-2.4,2.4s1.098,2.4,2.4,2.4h0Z"/><path class="e" d="M114.693,79.773c-2.357.728-7.774.271-8.223-4.176.051-5.879,6.603-6.209,9.678-4.237,2.517,1.614,3.553,6.376-1.454,8.413Z"/><path class="e" d="M83.144,56.357c-.96,3.106-.357,10.243,5.503,10.835,7.746-.067,8.18-8.699,5.582-12.75-2.127-3.317-8.401-4.682-11.085,1.915Z"/><path class="e" d="M141.569,56.357c.96,3.106.357,10.243-5.502,10.835-7.746-.068-8.18-8.7-5.583-12.751,2.127-3.317,8.401-4.682,11.085,1.916Z"/><path class="e" d="M99.883,86.551c3.504,4.594,11.718,5.71,14.663-.153h-4.145c1.349,2.686,4.188,4.236,7.171,4.005,2.945-.228,5.473-1.58,7.258-3.925.786-1.032.162-2.685-.861-3.284-1.233-.721-2.496-.174-3.284.861-.63.828-2.171,1.456-3.113,1.548-.778.076-1.115.107-1.764-.19-.583-.267-.969-.854-1.263-1.438-.787-1.566-3.358-1.566-4.145,0-.769,1.531-1.783,1.761-3.191,1.632-.287-.026-.302-.035-.721-.14-.323-.081-.826-.241-1.037-.338-.502-.231-1.213-.725-1.424-1.001-.785-1.029-2.068-1.572-3.284-.861-1.013.593-1.652,2.247-.861,3.284h0Z"/><path class="e" d="M109.956,80.635v3.363c0,.615.268,1.262.703,1.697.217.234.475.399.772.496.286.15.594.219.925.207.621-.028,1.264-.232,1.697-.703s.703-1.047.703-1.697v-3.363c0-.615-.268-1.262-.703-1.697-.217-.234-.475-.399-.772-.496-.286-.15-.594-.219-.925-.207-.621.028-1.264.232-1.697.703s-.703,1.047-.703,1.697h0Z"/><path class="d" d="M128.572,167.555c-3.443,10.997-5.388,22.522-6.908,34.155-1.056,8.081-2.464,17.694,2.197,24.497,2.644,3.859,6.884,5.284,10.907,5.816,3.852.51,7.82.402,11.502-1.115,11.592-4.778,17.982-26.618,22.364-40.854"/><path class="d" d="M96.141,167.555c3.443,10.997,5.388,22.522,6.908,34.155,1.056,8.081,2.464,17.694-2.197,24.497-2.644,3.859-6.884,5.284-10.907,5.816-3.852.51-7.82.402-11.502-1.115-11.592-4.778-17.982-26.618-22.364-40.854"/><path class="e" d="M163.276,102.919c7.562-4.016,12.903-11.204,15.716-19.184,3.322-9.423,2.798-19.824.559-29.425-1.303-5.588-3.224-11.017-5.698-16.193l-.861,3.284c8.987-5.135,11.536-16.556,7.821-25.813-4.087-10.186-14.354-17.216-25.455-15.262-5.491.967-10.659,4.37-12.986,9.539l3.284-.861c-8.046-4.031-16.76-6.326-25.714-7.099s-18.145-.242-26.861,1.936c-4.843,1.21-9.54,2.979-13.996,5.227l3.284.861C78.046.204,65.385-2.148,56.41,1.989c-9.695,4.468-15.546,15.615-13.858,26.097.908,5.638,4.301,10.586,9.285,13.384l-.861-3.284c-8.042,16.753-11.807,39.305-.057,55.31,2.843,3.873,6.396,7.161,10.654,9.423,2.727,1.448,5.155-2.694,2.423-4.145-6.624-3.518-11.331-9.805-13.695-16.853-2.875-8.571-2.378-17.87-.32-26.562,1.202-5.078,2.881-10.044,5.14-14.75.553-1.153.344-2.607-.861-3.284-7.232-4.06-8.801-13.191-5.733-20.456,3.228-7.646,11.3-13.471,19.776-11.873,4.36.822,8.088,3.228,9.922,7.356.549,1.234,2.233,1.391,3.284.861,7.332-3.699,15.42-5.839,23.593-6.524,8.441-.708,17.088-.283,25.323,1.762,4.432,1.101,8.727,2.653,12.811,4.698,1.064.533,2.724.381,3.284-.861,3.29-7.309,12.851-9.301,19.7-5.997,7.528,3.632,12.571,12.244,11.298,20.62-.666,4.383-3.082,8.136-6.946,10.344-1.193.681-1.416,2.121-.861,3.284,7.255,15.183,10.767,35.457.408,50.074-2.412,3.404-5.581,6.205-9.263,8.16-2.729,1.449-.307,5.594,2.423,4.145h0Z"/><path class="e" d="M126.258,166.917c-3.348,10.764-5.265,21.887-6.761,33.041-1.184,8.83-3.119,19.372,2.187,27.302,2.59,3.871,6.718,6.077,11.235,6.889,5.105.917,10.508.797,15.257-1.477,6.469-3.098,10.576-10.12,13.54-16.335,3.92-8.218,6.562-16.963,9.233-25.643.91-2.959-3.721-4.224-4.629-1.276-2.17,7.054-4.297,14.152-7.162,20.963-2.476,5.885-5.789,12.696-10.753,16.52-3.151,2.427-7.045,3.149-10.956,2.968-3.715-.171-7.818-.973-10.532-3.715-2.798-2.827-3.699-7.093-3.871-10.93-.192-4.272.366-8.536.92-12.763,1.514-11.566,3.45-23.109,6.92-34.267.919-2.956-3.713-4.221-4.629-1.276h0Z"/><path class="e" d="M93.827,168.193c3.099,9.966,4.985,20.25,6.425,30.574.615,4.406,1.287,8.845,1.429,13.297.126,3.942-.159,8.125-2.108,11.645-1.966,3.55-5.349,5.171-9.228,5.843-3.991.691-8.566.58-12.178-1.436-5.413-3.023-8.863-9.496-11.465-15.14-3.489-7.569-5.863-15.609-8.309-23.558-.906-2.944-5.541-1.688-4.629,1.276,2.385,7.75,4.767,15.509,8.009,22.954,2.902,6.665,6.675,13.771,12.866,17.934,3.861,2.596,8.727,3.367,13.297,3.047,4.632-.324,9.342-1.467,12.849-4.688,7.117-6.536,6.023-17.719,4.911-26.339-1.597-12.376-3.526-24.741-7.241-36.683-.914-2.94-5.55-1.685-4.629,1.276h0Z"/><path class="d" d="M188.686,179.306c-6.057,3.685-9.706,11.103-12.654,17.366-2.847,6.049-5.243,12.733-5.835,19.432-.439,4.976.264,10.153,2.698,14.516,2.721,4.879,8.035,7.915,13.491,8.635,4.979.657,10.112-.521,14.538-2.895,5.348-2.869,9.642-7.566,13.444-12.184,3.79-4.603,6.818-9.909,7.71-15.877,1.189-7.953-.911-15.863-6.357-21.772-4.787-5.194-11.815-9.64-19.102-9.526-.548.009-1.096.044-1.641.111-2.356.287-4.438,1.066-6.293,2.195Z"/><path class="e" d="M215.683,206.192c-1.056,1.773-4.676,4.523-7.446,2.012-3.261-3.68.623-7.554,3.637-8.052,2.467-.408,5.778,1.97,3.809,6.039Z"/><path class="e" d="M187.474,177.233c-4.995,3.113-8.371,8.097-11.058,13.221-2.993,5.707-5.692,11.709-7.296,17.965-1.64,6.398-2.208,13.405.055,19.731,2.137,5.977,6.56,10.337,12.545,12.451,6.164,2.178,12.97,1.28,18.824-1.383,5.915-2.691,10.6-7.471,14.717-12.379,4-4.768,7.48-10.089,8.827-16.255,1.355-6.202.747-12.729-1.853-18.524-5.462-12.175-22.035-22.361-34.762-14.828-2.656,1.572-.244,5.723,2.423,4.145,9.498-5.622,21.596,1.92,26.703,10.267,2.756,4.504,3.765,9.78,3.278,15.01-.505,5.415-3.038,10.4-6.293,14.675-6.405,8.414-15.918,17.554-27.489,15.464-4.713-.851-9.05-3.459-11.333-7.762-2.644-4.982-2.708-10.971-1.673-16.394,1.234-6.469,3.837-12.553,6.779-18.41,2.428-4.833,5.317-9.914,10.028-12.85,2.616-1.63.209-5.785-2.423-4.145Z"/><path class="e" d="M199.165,187.708c-.122,1.98-2.006,5.923-5.478,4.996-4.406-1.71-2.791-6.73-.435-8.481,1.929-1.434,5.804-.859,5.912,3.485Z"/><path class="e" d="M201.435,215.616c-.334,5.398-5.471,16.15-14.937,13.623-12.015-4.663-7.611-18.351-1.185-23.127,5.261-3.91,15.828-2.342,16.122,9.504Z"/><path class="e" d="M209.242,195.421c-.632,2.053-3.618,5.726-7.038,3.868-4.205-2.921-1.228-7.796,1.699-9.041,2.396-1.019,6.33.571,5.339,5.173Z"/><path class="d" d="M36.116,179.306c6.057,3.685,9.706,11.103,12.654,17.366,2.847,6.049,5.243,12.733,5.835,19.432.439,4.976-.264,10.153-2.698,14.516-2.721,4.879-8.035,7.915-13.491,8.635-4.979.657-10.112-.521-14.538-2.895-5.348-2.869-9.642-7.566-13.444-12.184-3.79-4.603-6.818-9.909-7.71-15.877-1.189-7.953.911-15.863,6.357-21.772,4.787-5.194,11.815-9.64,19.102-9.526.548.009,1.096.044,1.641.111,2.356.287,4.438,1.066,6.293,2.195Z"/><path class="e" d="M9.118,206.192c1.056,1.773,4.676,4.523,7.446,2.012,3.261-3.68-.623-7.554-3.637-8.052-2.467-.408-5.778,1.97-3.809,6.039Z"/><path class="e" d="M34.904,181.378c4.174,2.601,6.898,6.907,9.157,11.161,2.641,4.972,4.995,10.167,6.561,15.583,1.597,5.524,2.436,11.493.886,17.126-1.343,4.881-4.546,8.792-9.349,10.596-5.158,1.937-10.944,1.389-15.884-.957-5.071-2.408-9.058-6.421-12.662-10.637-3.473-4.062-6.57-8.504-7.978-13.728-1.369-5.079-1.081-10.611.853-15.506,2.153-5.45,6.664-9.899,11.694-12.772,5.187-2.963,11.372-4.031,16.72-.866,2.664,1.577,5.082-2.571,2.423-4.145-11.585-6.858-25.969,1.027-32.726,11.138-3.4,5.088-4.932,11.377-4.542,17.463.414,6.455,2.939,12.415,6.763,17.585,3.731,5.044,8.099,9.93,13.313,13.474,5.605,3.81,12.553,5.675,19.289,4.623,5.679-.887,11.09-4.119,14.167-9.031,3.578-5.712,4.025-12.798,3.057-19.301-1.103-7.407-4.09-14.38-7.403-21.041-2.848-5.726-6.37-11.452-11.919-14.91-2.629-1.638-5.042,2.513-2.423,4.145Z"/><path class="e" d="M25.636,187.708c.122,1.98,2.006,5.923,5.478,4.996,4.406-1.71,2.791-6.73.435-8.481-1.929-1.434-5.804-.859-5.912,3.485Z"/><path class="e" d="M23.366,215.616c.334,5.398,5.471,16.15,14.937,13.623,12.015-4.663,7.611-18.351,1.185-23.127-5.261-3.91-15.828-2.342-16.122,9.504Z"/><path class="e" d="M15.56,195.421c.632,2.053,3.618,5.726,7.038,3.868,4.205-2.921,1.228-7.796-1.699-9.041-2.396-1.019-6.33.571-5.339,5.173Z"/></g></svg>