<svg id="b" xmlns="http://www.w3.org/2000/svg" width="402.043" height="236.693" viewBox="0 0 402.043 236.693" style="color: initial !important;"><defs><style>.d{fill:#ffffff;}.e{fill:#fdefe6;}.f{fill:none;}.g{fill:#211715;}.h{fill:#645d5c;}.i{fill:#febe69;}</style></defs><g id="c"><path class="d" d="M40.728,30.541c.6-1.869,1.818-3.634,2.17-5.558.586-3.205-3.828-2.626-5.427-1.513-2.769,1.928-3.721,5.621-4.999,8.281,1.355.398,2.583.96,3.599,1.703,2.094,1.532,2.983,3.582,3.217,5.877.145-2.964.529-5.949,1.441-8.79Z"/><path class="d" d="M43.936,44.681c1.176-1.21,2.056-2.532,2.614-3.792.482-1.088.832-2.382.536-3.569-.296-1.192-1.284-1.75-2.384-1.002-.756.514-1.45,1.116-2.219,1.61-1.175.754-1.624,1.296-3.296.676.508,2.972-.248,6.433-.974,9.738,2.334-.822,4.259-2.155,5.724-3.662Z"/><path class="d" d="M32.455,21.114c.067-.25.125-.503.169-.76.346-2.008-1.727-3.037-3.494-2.592-4.482,1.131-6.141,8.159-6.269,12.101l-.037,1.148c2.925-.276,6.09-.172,8.835.51-.622-2.139-.869-3.558-.608-5.741.199-1.662.985-3.111,1.404-4.666Z"/><path class="d" d="M19.953,17.823c-1.261-.29-2.627-.098-3.759.53-4.026,2.232-4.429,9.211-3.947,13.191l.35,2.701c1.306-.877,2.804-1.602,4.519-2.143,1.165-.368,2.525-.673,3.986-.883-1.458-3.784-1.452-8.105,0-11.892.323-.843-.324-1.306-1.099-1.492-.016-.004-.033-.008-.049-.012Z"/><path class="d" d="M8.366,24.985c-.163-.583-.381-1.157-.692-1.722-.153-.278-.343-.549-.617-.71-.385-.228-.884-.199-1.291-.014s-.737.506-1.025.848c-4.143,4.923-3.454,14.807,1.087,20.233,1.081-3.236,2.78-6.13,5.38-8.328-1.101-2.074-1.507-2.997-1.963-5.073-.403-1.834-.415-3.573-.879-5.235Z"/><path class="d" d="M168.08,32.036c-.979-.543-2.008-.669-2.398.954-.395,1.695.379,3.642,1.211,5.072,1.438,2.472,3.595,4.513,6.07,5.782-1.501-2.787-1.725-6.279-.619-9.231-1.136.025-2.345-1.167-3.215-1.857-.318-.252-.679-.516-1.048-.72Z"/><path class="d" d="M203.699,22.799c-.683.944-1.007,2.395-1.084,3.533-.122,1.815-.343,3.621-.832,5.372.879.688,1.676,1.478,2.376,2.366,1.305,1.676,2.189,3.588,2.59,5.602.778-.816,1.278-1.855,1.606-2.931.297-.976.459-1.987.617-2.994.157-.999.311-1.999.411-3.006.277-2.798.344-6.801-2.455-8.433-1.508-.888-2.548-.451-3.23.491Z"/><path class="d" d="M193.298,16.003c-.545,1.767-.195,3.731-.293,5.553-.109,2.031-.402,4.058-.968,6.014,3.149.598,6.346,1.706,8.962,3.532.011.008.021.015.032.023.589-3.231.334-6.63-.545-9.784-.598-2.143-1.561-5.419-3.419-6.81-.711-.532-1.729-.764-2.516-.333-.561.302-.922.894-1.146,1.494-.039.103-.074.207-.107.312Z"/><path class="d" d="M181.115,16.843c.01-.209.031-.419.064-.631.1-.636.336-1.289.835-1.689.681-.581,1.725-.554,2.524-.173.817.381,1.434,1.08,1.988,1.779,2.587,3.268,4.43,7.225,5.002,11.355-3.053-.519-6.202-.527-9.251-.075.127-1.983-.021-3.98-.393-5.931-.296-1.551-.845-3.053-.77-4.636Z"/><path class="d" d="M171.207,24.214c-.283-.716-.542-1.438-.713-2.182-.191-.835-.336-2.006.427-2.615.263-.209.608-.245.935-.254,4.858-.147,7.375,4.61,8.5,8.644-.536.139-1.058.309-1.564.508-2.167.832-4.058,2.189-5.368,4.18l.002-.031c.145-2.07-.654-4.149-1.353-6.074-.27-.731-.58-1.45-.867-2.175Z"/><path class="h" d="M68.48,25.291c-1.345-1.314-2.422-3.28-2.976-5.085-5.148-16.779,18.764-25.765,26.726-10.039.397.784,1.222,2.473,2.022,4.667"/><path class="h" d="M129.791,14.478c.718-2.972,2.803-6.068,5.135-8.039,10.681-9.028,26.189,1.224,21.475,14.365-1.187,3.047-3.102,5.399-5.861,7.149"/><path class="g" d="M69.894,23.876c-2.498-2.555-3.576-6.776-2.964-10.13.508-2.781,1.901-5.025,4.082-6.823,4.107-3.384,10.365-3.965,14.969-1.001,3.3,2.124,5.013,5.859,6.342,9.444.887,2.393,4.755,1.358,3.857-1.063-1.567-4.226-3.5-8.327-7.171-11.117C86.14,1.004,82.52-.107,78.918.008c-7.072.225-13.974,4.897-15.693,11.965-1.234,5.073.167,10.974,3.841,14.731,1.803,1.844,4.63-.986,2.828-2.828h0Z"/><path class="g" d="M131.72,15.01c1.634-6.278,8.1-11.234,14.671-9.721,5.234,1.205,9.106,5.84,8.866,11.281-.175,3.962-2.442,7.519-5.726,9.655-2.15,1.399-.147,4.863,2.019,3.454,7.067-4.598,10.214-14.298,5.355-21.647-4.134-6.253-12.292-8.665-19.158-5.692-4.772,2.067-8.576,6.581-9.884,11.606-.649,2.493,3.208,3.557,3.857,1.063h0Z"/><path class="h" d="M161.317,63.533c2.871-2.853,5.717-5.64,8.086-8.956,1.4-1.959,4.718-5.874,4.405-8.494,0,0-.064-.531-.126-1.062l-.028-.038c-.2-.272-.381-.563-.536-.853-1.807-3.123-1.961-7.218-.39-10.441,1.298-2.651,3.486-4.385,6.065-5.375,1.062-.418,2.197-.708,3.368-.89,3.25-.49,6.6-.463,9.833.136.018,0,.027.009.045.009,3.15.599,6.346,1.707,8.961,3.532.3.218.599.436.89.681.835.672,1.598,1.434,2.27,2.288,2.46,3.16,3.423,7.154,2.479,11.095-.677,2.847-2.648,5.777-4.479,7.886-1.428,2.564-1.036,2.859-1.546,6.055-2.26,14.15-8.778,27.84-19.611,37.335-7.329,6.424-16.169,10.157-25.26,13.33.08,1.137.16,2.276.16,2.276l.963,13.632.472,21.244-.721,10.603c.111.564,2.556,2.172,3.181,2.718,6.106,5.332,12.235,13.675,14.534,21.57,3.159,10.85-.021,21.229-3.668,31.463,3.577,2.327,8.885,6.101,8.752,10.875-.109,3.887-3.507,6.069-6.909,7.011-7.782,2.155-29.323.644-36.537-2.915-7.476-3.688-3.859-10.415-4.309-16.915-.571-8.245-5.474-13.494-13.165-15.843-14.552-4.444-52.986-1.9-54.379,18.405-.355,5.175,2.053,10.495-3.452,13.999-6.97,4.437-26.442,5.732-34.531,4.003-4.072-.871-8.399-2.971-8.265-7.792.127-4.555,5.136-7.989,8.475-10.364-3.663-8.656-5.514-20.317-3.836-29.729,1.774-9.947,7.731-17.775,14.499-24.885.396-14.756,1.796-32.101,6.032-46.898-1.85-.443-3.67-1.004-5.453-1.667-9.673-3.596-17.842-9.964-23.977-18.204-6.292-8.45-8.855-20.961-9.389-31.295-.095-1.842-.15-3.758-.118-5.69.16-9.768,2.528-19.964,13.017-23.272,5.21-1.643,14.302-2.051,18.955,1.353,5.508,4.029,2.678,11.643,1.518,17.872-1.701,9.134,6.127,18.508,14.8,20.086,1.828-10.33,4.43-20.643,8.754-30.242,2.485-5.517,5.66-10.782,9.805-15.217,4.011-4.292,9.789-7.449,15.239-9.53,11.759-4.49,25.448-6.213,37.865-3.806,6.437,1.248,12.862,3.528,18.151,7.486,9.279,6.945,12.971,18.777,11.901,30.014,1.423,1.627,2.573,3.491,3.509,5.435.853,1.771,1.715,3.637,1.967,5.605.913,7.135-4.48,13.687-10.444,16.752-.503.259-1.015.501-1.534.727-3.743,1.631-7.882,2.199-11.872,2.957"/><path class="g" d="M106.753,48.015c-.597-2.171-.026-7.099,4.043-7.382,5.361.214,5.475,6.199,3.589,8.947-1.544,2.25-5.917,3.059-7.632-1.566Z"/><path class="g" d="M138,47.788c-.597-2.171-.026-7.099,4.043-7.382,5.361.214,5.475,6.199,3.589,8.947-1.544,2.25-5.917,3.059-7.632-1.566Z"/><path class="e" d="M66.221,78.639c-1.842.407-2.005,2.321-1.239,3.783,1.326,2.53,5.093,6.718,7.077,9.016,7.572,8.773,17.069,18.143,26.438,24.968,5.216,3.8,9.529,7.284,15.995,4.025,9.271-4.673,24.739-21.045,29.579-30.235,1.333-2.532.8-4.578-2.365-4.287-7.894,5.571-16.462,12.049-25.748,15.09-5.589,1.83-7.386,1.193-12.599-.984-12.407-5.181-24.157-13.46-35.222-20.989-.607-.384-1.2-.544-1.916-.386Z"/><path class="g" d="M54.398,71.479c2.465-13.649,6.097-27.975,14.194-39.474,1.845-2.62,3.958-5.087,6.435-7.13,2.535-2.091,5.458-3.749,8.427-5.139,5.98-2.8,12.549-4.55,19.068-5.507,6.633-.974,13.53-1.019,20.139.157,6.567,1.168,13.174,3.361,18.531,7.443,4.42,3.368,7.607,8.166,9.339,13.418.873,2.646,1.431,5.394,1.641,8.173.108,1.424.135,2.854.086,4.281-.023.682-.105,1.364-.122,2.044-.032,1.241.621,1.796,1.321,2.729,2.092,2.789,4.201,6.638,4.223,10.2.019,3.113-1.338,6.107-3.297,8.479-2.046,2.477-4.657,4.387-7.598,5.668-3.654,1.592-7.703,2.11-11.588,2.842-2.527.476-1.457,4.331,1.063,3.857,4.622-.87,9.245-1.59,13.505-3.694,3.508-1.733,6.56-4.391,8.79-7.603,2.216-3.192,3.49-7.168,3.024-11.067-.537-4.496-3.16-9.061-6.062-12.454l.586,1.414c.859-9.487-1.525-19.338-7.629-26.776-6.805-8.291-17.777-12-28.095-13.312-11.071-1.408-22.599.142-33.09,3.864-5.027,1.784-9.892,4.107-14.122,7.386-4.273,3.313-7.634,7.714-10.376,12.344-6.608,11.159-9.964,24.134-12.25,36.793-.192,1.062.289,2.156,1.397,2.46.969.266,2.267-.328,2.46-1.397h0Z"/><path class="g" d="M51.533,69.164c-5.107-1.487-9.577-5.642-11.347-10.682-.884-2.517-1.006-5.016-.473-7.618.553-2.698,1.228-5.369,1.521-8.113.277-2.584.089-5.261-1.108-7.608-1.224-2.4-3.486-3.955-5.934-4.917-4.983-1.96-11.082-1.692-16.205-.441-5.093,1.243-9.474,4.3-12.12,8.858-2.575,4.437-3.45,9.672-3.703,14.73-.312,6.239.216,12.585,1.338,18.726,1.105,6.048,2.929,12.075,5.931,17.466,3.319,5.961,8.283,11.114,13.669,15.245,5.735,4.399,12.379,7.627,19.402,9.349l-1.397-2.46c-4.363,15.36-5.667,31.527-6.104,47.429l.586-1.414c-5.452,5.746-10.445,12.042-13.28,19.517-2.887,7.613-2.888,15.981-1.599,23.926.729,4.494,1.943,8.914,3.701,13.116l.919-2.259c-3.796,2.699-8.565,5.92-9.341,10.901-.849,5.445,3.225,9.074,8.04,10.512,3.775,1.128,7.898,1.236,11.809,1.207,4.733-.035,9.479-.448,14.145-1.246,3.839-.657,7.936-1.546,11.329-3.547,2.175-1.283,3.895-3.19,4.6-5.647.646-2.252.402-4.623.253-6.922-.23-3.539.117-6.481,1.972-9.421,1.542-2.444,3.94-4.433,6.534-5.961,6.221-3.665,13.692-5.236,20.829-5.905,6.771-.634,13.88-.596,20.309.867,3.777.86,7.44,2.419,10.115,5.306,3.019,3.258,3.993,7.728,3.717,12.057-.268,4.195-1.368,8.87,1.361,12.539,2.441,3.281,6.658,4.501,10.476,5.349,4.389.974,8.896,1.499,13.378,1.807,4.305.296,8.66.399,12.963.015,4.032-.36,8.534-1.167,11.38-4.332,3.889-4.324,1.997-9.917-1.729-13.588-1.737-1.711-3.762-3.125-5.798-4.454l.919,2.259c2.22-6.245,4.261-12.591,4.867-19.226.583-6.387-.505-12.687-3.192-18.504-2.53-5.476-6.222-10.502-10.448-14.79-1.587-1.609-3.361-2.874-5.053-4.343-.089-.078-.267-.29-.361-.326-.63-.248.681-.163.213.876.039-.087.005-.23.022-.322.1-.542.078-1.142.115-1.692.191-2.807.484-5.627.574-8.44.049-1.535-.058-3.089-.092-4.624-.123-5.531-.141-11.075-.369-16.603-.22-5.35-.751-10.701-1.126-16.043l-1.468,1.929c10.14-3.55,20.081-7.938,27.924-15.48,7.31-7.031,12.536-16.037,15.694-25.634,1.509-4.586,2.335-9.394,3.047-14.028.277-1.802,1.615-3.189,2.692-4.73,1.534-2.196,2.77-4.685,3.169-7.354.774-5.179-1.204-10.436-5.185-13.849-4.098-3.513-9.573-5.112-14.884-5.474-5.609-.383-12.302.488-16.113,5.094-3.591,4.341-4.058,11.156-.662,15.787l-.273-1.009c.177,1.5.036,2.449-.713,3.791-.793,1.42-1.783,2.717-2.752,4.019-2.502,3.365-5.342,6.334-8.314,9.286-1.829,1.817.999,4.646,2.828,2.828,3.91-3.885,7.561-7.902,10.663-12.472,1.25-1.841,2.576-4.08,2.413-6.392-.074-1.042-.263-1.793-.8-2.673-.712-1.167-1.175-2.496-1.313-3.859-.249-2.455.414-5.045,2.104-6.889s4.023-2.797,6.457-3.236c5.49-.99,11.854-.156,16.684,2.724,4.64,2.767,7.247,8.174,5.49,13.455-.414,1.243-1.068,2.401-1.778,3.497-.795,1.226-1.908,2.286-2.565,3.585-.908,1.796-1.059,3.508-1.337,5.468-1.493,10.514-5.62,20.905-12.096,29.346-3.795,4.946-8.459,9.161-13.776,12.413-5.533,3.385-11.563,5.79-17.666,7.927-.788.276-1.532,1.02-1.468,1.929.369,5.252.834,10.505,1.113,15.762.255,4.799.221,9.63.328,14.434.05,2.254.166,4.518.15,6.772-.014,2.071-.266,4.163-.407,6.229-.093,1.366-.218,2.735-.279,4.103-.075,1.695,1.111,2.595,2.358,3.548,1.795,1.373,3.435,2.868,5.127,4.694,2.021,2.183,3.855,4.526,5.475,7.022,3.744,5.765,6.071,12.096,6.013,19.033-.062,7.38-2.44,14.495-4.886,21.377-.305.858.213,1.798.919,2.259,3.021,1.972,8.286,5.249,7.74,9.519-.481,3.765-5.381,4.914-8.304,5.269-3.994.485-8.066.44-12.078.244-4.233-.207-8.469-.625-12.635-1.414-1.759-.333-3.512-.728-5.219-1.268-1.614-.511-2.954-.95-4.292-2.229-2.812-2.686-1.465-7.356-1.234-10.75.305-4.496-.604-9.228-3.219-12.972s-6.442-6.194-10.714-7.625c-5.928-1.986-12.556-2.282-18.754-2.118-7.301.193-14.773,1.22-21.661,3.725-6.007,2.185-12.187,5.696-15.242,11.568-1.686,3.241-2.11,6.709-1.875,10.32.13,2,.486,4.215-.2,6.153-.633,1.786-2.232,2.81-3.866,3.589-3.33,1.589-7.427,2.298-11.134,2.825-4.296.61-8.668.862-13.006.788-3.563-.061-7.223-.151-10.512-1.651-1.699-.775-3.307-2.027-3.558-4.001-.263-2.078.93-3.891,2.302-5.326,1.539-1.609,3.353-2.894,5.16-4.179.65-.462,1.275-1.409.919-2.259-5.045-12.059-6.596-26.885-.34-38.777,1.524-2.896,3.375-5.623,5.429-8.168.925-1.146,1.885-2.262,2.869-3.357.539-.599,1.085-1.192,1.637-1.779.867-.923,1.126-1.555,1.163-2.823.208-7.104.631-14.207,1.403-21.273.894-8.187,2.283-16.341,4.535-24.27.289-1.018-.352-2.204-1.397-2.46-11.46-2.81-21.842-9.924-28.673-19.555-6.635-9.356-8.603-21.741-8.795-32.97-.157-9.19,1.398-20.545,11.546-23.746,4.458-1.406,9.754-1.715,14.258-.37,2.038.609,4.037,1.731,4.901,3.778.847,2.005.606,4.416.259,6.502-.489,2.94-1.426,5.83-1.666,8.807-.239,2.959.454,5.909,1.657,8.597,2.485,5.552,7.581,9.977,13.412,11.675,2.476.721,3.534-3.138,1.063-3.857h0Z"/><path class="g" d="M149.246,57.555c1.168.124,2.4.423,3.174,1.323.453.526.692,1.221.707,1.914.038,1.821-1.343,3.381-3.093,3.787-.802.186-2.011.233-2.828.132-1.065-.132-1.811-.282-2.818-.653-.999-.368-1.867-.878-2.473-1.794-.547-.826-.692-1.967-.281-2.88.489-1.087,1.818-1.49,2.894-1.691,1.305-.243,2.642-.281,3.967-.2.244.015.496.034.751.061Z"/><path class="f" d="M130.324,73.872c2.91-2.022,6.503-2.891,10.044-2.999s7.065.502,10.535,1.219"/><path class="f" d="M147.849,66.354c-.812,1.435-1.386,2.991-2.161,4.446-.647,1.216-1.521,2.368-2.777,2.997-1.193.597-2.388.352-3.616.081-1.416-.313-2.853-.57-4.307-.594-1.972-.033-4.009.395-5.597,1.564"/><path class="g" d="M39.216,40.71c1.265.28,2.413.136,3.518-.554.856-.534,1.652-1.144,2.463-1.743.22-.162.443-.315.671-.466-.221.073-.228.076-.022.01-.289.021-.323.029-.103.024-.18.008-.346-.036-.498-.133.181.112.155.089-.079-.069-.155-.226-.171-.245-.048-.056.1.195.098.183-.008-.036.038.12.068.241.09.365-.024-.197-.027-.173-.008.073-.003.08-.071.819-.012.486-.073.413-.297,1.119-.381,1.324.056-.137-.133.284-.157.333-.086.175-.177.349-.271.519-.198.358-.415.706-.647,1.043-.121.176-.246.349-.375.519.294-.387-.148.17-.203.235-.277.324-.568.635-.872.933-.316.31-.651.595-.985.885-.18.143-.187.151-.021.024-.097.074-.195.146-.294.218-.2.145-.404.284-.611.419-.425.276-.863.531-1.314.762-.231.119-.466.229-.702.338-.218.096-.24.106-.069.031-.124.05-.248.098-.373.144-.976.369-1.751,1.366-1.397,2.46.308.953,1.413,1.793,2.46,1.397,3.484-1.317,6.516-3.627,8.51-6.801.982-1.564,1.811-3.49,1.71-5.369-.061-1.142-.401-2.383-1.295-3.166s-2.113-1.09-3.259-.71c-1.105.367-1.953,1.235-2.897,1.879-.402.275-.812.539-1.224.797-.065.041-.36.156-.094.063s-.052.003-.104.013c-.224.045.149-.024.156-.026-.379.073.265.08-.191-.021-1.019-.226-2.212.307-2.46,1.397-.231,1.012.304,2.218,1.397,2.46h0Z"/><path class="g" d="M172.191,32.609c.105.012.392.114.083-.014-.035-.015-.281-.112-.06-.014.226.1-.028-.021-.059-.04-.098-.059-.198-.112-.294-.173-.099-.062-.193-.129-.29-.194-.02-.013-.257-.183-.08-.053.176.129-.054-.043-.074-.059-.11-.09-.22-.18-.33-.271-.585-.486-1.173-.988-1.826-1.382-1.542-.931-3.549-1.096-4.755.466-1.291,1.672-1.077,4.128-.371,5.998.689,1.825,1.726,3.454,3.007,4.921,1.342,1.537,3.009,2.84,4.819,3.781.928.482,2.215.27,2.736-.718.486-.919.274-2.221-.718-2.736-.414-.215-.819-.445-1.211-.697-.197-.127-.391-.258-.582-.394-.096-.068-.191-.137-.285-.208.171.134.166.13-.014-.012-.732-.606-1.417-1.255-2.035-1.979-.047-.056-.5-.627-.246-.291-.144-.19-.283-.384-.417-.58-.267-.391-.517-.795-.744-1.21-.116-.212-.217-.43-.328-.644-.095-.213-.103-.224-.024-.033-.048-.116-.093-.233-.136-.351-.172-.469-.316-.957-.387-1.452.063.44.002-.3.003-.385.002-.121.008-.242.019-.362-.034.233-.029.233.015-.002.026-.108.056-.214.092-.318-.114.247-.125.278-.031.092.118-.184.082-.143-.107.121.152-.144.096-.103-.169.122-.338.124-.411.155-.217.094-.379.036-.463.048-.251.037.339.005-.566-.1-.033.008.07.021.138.045.206.072-.303-.132-.358-.152-.166-.06.137.081.278.152.413.237.136.086.269.178.399.272.468.339-.25-.22.084.064.339.288.685.57,1.036.844,1.024.8,2.014,1.355,3.327,1.503,1.043.117,2.045-1.003,2-2-.053-1.184-.882-1.875-2-2h0Z"/><path class="g" d="M41.52,36.379c.117-1.002.343-2.314.621-3.465.15-.619.317-1.235.515-1.84.204-.622.295-.816.55-1.367.88-1.905,2.356-4.427,1.52-6.59-1.46-3.775-6.691-2.753-9.148-.697-2.02,1.691-3.075,4.192-4.064,6.56-.404.968.435,2.241,1.397,2.46,1.169.266,2.027-.36,2.46-1.397.002-.006.127-.302.051-.123-.085.201.075-.175.093-.216.079-.183.159-.365.241-.547.206-.456.423-.908.661-1.349.206-.381.426-.753.667-1.112.052-.077.388-.53.215-.315.144-.18.297-.354.456-.521.16-.169.33-.323.499-.482,0,0,.249-.211.107-.097-.142.113.097-.072.158-.111.082-.053.163-.104.248-.151.079-.044.517-.221.192-.107-.343.119.122-.04.188-.062.113-.038.228-.073.343-.104.138-.038.276-.071.416-.1.06-.012.122-.021.182-.035.352-.086-.35.013-.104.01.261-.002.524-.027.786-.03.407-.003.012.089-.071-.027.023.032.372.088.43.097.29.045-.237.087-.183-.091,0,.003.127.061.136.068.313.276-.256-.286-.043-.055.217.235-.217-.389-.064-.103.052.097.046.174-.008-.058-.085-.361-.045.002.004.062.001.002.118.358,0-.037-.079-.264-.007-.121-.019-.021-.01.081-.011.184-.013.268,0-.051.093-.408.01-.136-.162.527-.278,1.052-.481,1.569-.096.243-.286.644-.478,1.054-.242.517-.48,1.036-.702,1.562-1.022,2.422-1.463,5.039-1.768,7.637-.122,1.043,1.007,2.044,2,2,1.188-.053,1.869-.883,2-2h0Z"/><path class="g" d="M33.43,30.432c-.171-.634-.33-1.274-.427-1.925.046.31-.002-.03-.005-.08-.012-.172-.029-.343-.037-.515-.017-.358-.016-.716,0-1.074.031-.68.064-.99.24-1.654.193-.73.469-1.435.726-2.144.479-1.324.975-2.803.591-4.215s-1.518-2.421-2.865-2.891c-2.282-.797-4.742.233-6.404,1.827-1.557,1.493-2.536,3.524-3.217,5.541-.709,2.098-1.09,4.348-1.17,6.56-.038,1.047.947,2.047,2,2,1.116-.05,1.959-.879,2-2,.013-.353.034-.705.066-1.056.017-.189.037-.378.059-.567.011-.097.024-.194.036-.292-.017.139-.051.341-.009.086.142-.865.309-1.721.54-2.566.108-.396.228-.79.362-1.179.071-.207.146-.414.225-.618.039-.102.08-.203.121-.305-.102.256-.06.135.024-.046.18-.388.37-.771.584-1.142.092-.159.187-.315.286-.469.077-.12.537-.725.223-.345.238-.288.481-.567.753-.823.054-.051.517-.43.296-.265-.212.158-.011.01.029-.014.122-.075.238-.158.362-.23.165-.096.335-.179.507-.26-.363.171-.059.033.128-.023.093-.028.204-.037.291-.077.242-.112-.31-.019-.043-.002.106.007.22-.007.327-.01.238-.006.295.046.031-.016.139.032.678.251.27.035.089.047.18.101.269.144.15.072.16.21-.044-.046.056.07.146.15.207.211-.013-.013-.211-.293-.1-.105.14.238-.186-.286-.02-.068.189.249-.074.23.023.013-.11.246.02.145.035-.009-.014.144-.057.299-.089.441-.067.292-.151.579-.242.864-.194.609-.429,1.203-.643,1.805-.999,2.816-.92,5.704-.149,8.562.281,1.043,1.423,1.682,2.46,1.397,1.05-.288,1.679-1.414,1.397-2.46h0Z"/><path class="g" d="M22.826,30.124c-.843-2.524-1.059-5.199-.538-7.725.13-.629.296-1.251.499-1.86.265-.796.554-1.564.29-2.417-.53-1.713-2.259-2.283-3.874-2.412-5.266-.422-8.128,4.68-8.805,9.168-.334,2.211-.413,4.443-.151,6.667.126,1.073.829,2,2,2,.983,0,2.127-.92,2-2-.189-1.603-.213-3.228-.073-4.837.018-.202.041-.404.061-.606.038-.39.006-.066-.005.012.016-.115.034-.231.052-.346.069-.43.152-.858.253-1.281.1-.417.215-.83.352-1.237.063-.186.135-.369.201-.554.102-.283-.134.289-.01.018.057-.124.113-.249.174-.372.166-.336.351-.663.559-.975.058-.088.12-.172.18-.259-.041.059-.266.304-.025.036.138-.153.271-.309.418-.454.127-.125.273-.233.399-.359.186-.186-.281.135-.038.036.065-.026.132-.09.192-.128.443-.28.721-.392,1.302-.511.226-.046.932-.031,1.118.012.097.022.193.048.289.072-.318-.08-.079-.081,0,.004-.213-.225-.347-.102-.428-.63-.043-.282.109-.85-.089-.277-.397,1.146-.711,2.293-.885,3.495-.427,2.95-.225,5.948.723,8.784.342,1.024,1.379,1.694,2.46,1.397,1.001-.275,1.741-1.431,1.397-2.46h0Z"/><path class="g" d="M12.674,33.787c-.576-1.114-1.042-2.208-1.345-3.428-.392-1.576-.495-3.188-.783-4.781-.273-1.511-.793-3.269-1.951-4.342-1.506-1.397-3.717-.861-5.044.486C-.091,25.421-.494,31.548.409,36.364c.533,2.84,1.67,5.656,3.439,7.954.658.854,1.72,1.312,2.736.718.841-.492,1.381-1.875.718-2.736-2.118-2.751-3.212-6.169-3.301-9.628-.043-1.639.126-3.252.608-4.823.219-.716.493-1.373.865-2.022.156-.272.37-.627.525-.834.114-.152.281-.282.38-.442.146-.234-.012-.133.146-.069l-.883-.514c.722.567.891,1.818,1.046,2.674.202,1.118.287,2.253.483,3.372.36,2.059,1.09,3.942,2.048,5.793,1.183,2.287,4.636.266,3.454-2.019h0Z"/><path class="f" d="M38.016,47.797c1.726-3.234,1.678-7.311.017-10.579-1.66-3.268-4.848-5.681-8.408-6.555-2.068-.508-4.221-.522-6.35-.534-6.002-.033-12.494.089-17.263,3.732-.816.623-1.575,1.357-2.039,2.272-.532,1.047-.641,2.251-.741,3.422-.293,3.429-.538,7.098,1.155,10.095.997,1.765,2.575,3.115,4.121,4.426"/><path class="g" d="M203.646,32.465c.452-1.591.704-3.227.866-4.872.041-.419.08-.84.103-1.261.003-.055.064-.618.003-.164.067-.494.18-.986.337-1.459.013-.04.244-.571.071-.213.103-.213.215-.421.349-.616-.342.499.411-.456-.04.013.15-.156.445-.126.084-.068.223-.051.206-.051-.049,0,.229.01.23.006.005-.014.316.152.298.078.544.224.007.004.474.348.304.201.07.06.516.566.384.385.506.691.771,1.732.842,2.457.1,1.017.069,2.044-.012,3.061-.114,1.435-.334,2.869-.594,4.284-.225,1.227-.493,2.605-1.3,3.601-.679.839-.82,2.008,0,2.828.702.702,2.145.844,2.828,0,1.99-2.458,2.402-5.464,2.815-8.508.319-2.356.526-4.771-.017-7.113-.547-2.358-2.147-4.518-4.54-5.227-2.539-.753-4.484.984-5.37,3.203-.417,1.046-.57,2.165-.657,3.282-.129,1.67-.356,3.297-.815,4.911-.704,2.481,3.154,3.54,3.857,1.063h0Z"/><path class="g" d="M193.961,28.117c.824-2.92,1.086-5.905,1.029-8.927-.019-1.021.003-2.393.424-3.131.229-.401.202-.126.089-.095-.206.056.188.058.139.035.2.092.642.497.736.614,1.306,1.627,1.829,3.831,2.336,5.851.659,2.625.855,5.409.396,8.086-.182,1.063.283,2.154,1.397,2.46.962.264,2.277-.326,2.46-1.397.879-5.122.058-10.465-2.09-15.19-.987-2.17-2.71-4.329-5.281-4.443-3.287-.146-4.494,3.327-4.603,6.018-.059,1.457.072,2.905-.042,4.362-.125,1.594-.413,3.155-.847,4.694-.7,2.482,3.158,3.541,3.857,1.063h0Z"/><path class="g" d="M184.278,27.406c.125-2.162-.055-4.334-.465-6.459-.184-.952-.459-1.883-.629-2.838-.106-.597-.192-1.435.117-2.12-.127.283.206-.151-.014.075-.209.215.207-.111-.082.032.029-.014.317-.055.105-.034-.222.022.095.01.114.012-.417-.056.344.094.166.032-.216-.075.167.088.213.115.089.052.178.106.261.165-.199-.142.174.167.227.219.273.268.632.695.802.911,1.044,1.33,2.067,3.039,2.824,4.67.347.749.705,1.701.993,2.666.309,1.037.537,2.094.691,3.165s1.513,1.657,2.46,1.397c1.149-.316,1.552-1.387,1.397-2.46-.657-4.564-2.753-8.842-5.646-12.402-1.528-1.88-4.131-3.299-6.495-1.971-2.482,1.395-2.407,4.629-1.901,7.044.244,1.167.603,2.515.735,3.568.176,1.396.208,2.808.126,4.211-.061,1.046.963,2.046,2,2,1.135-.051,1.935-.879,2-2h0Z"/><path class="g" d="M182.246,27.138c-.997-3.443-2.808-7.206-6.121-8.959-1.855-.982-4.98-1.746-6.685-.116-1.89,1.807-.936,4.737-.111,6.81.509,1.281,1.028,2.554,1.459,3.864.437,1.326.708,2.396.638,3.726-.055,1.046.959,2.047,2,2,1.131-.051,1.941-.879,2-2,.115-2.172-.57-4.257-1.302-6.271-.348-.956-.755-1.888-1.116-2.839-.187-.493-.361-.992-.497-1.501-.053-.198-.098-.396-.14-.597-.018-.084-.035-.17-.045-.256.025.202.015.188.018-.003.001-.086.009-.184.002-.269-.018-.223.001.047-.017.095.122-.32-.031.03-.126.129-.105.109-.38.137-.473.219-.079.069.004-.005.126-.008.216-.006.433-.003.649.01.06.004.44.04.179.009-.237-.028.049.009.082.017.168.038.336.069.503.115.163.044.321.103.483.152.033.01.292.115.071.022-.225-.094.099.05.138.07.293.154.574.319.848.504.068.046.135.095.201.144-.022-.016-.249-.206-.081-.057.145.129.293.253.432.388.263.253.5.527.738.803.147.171-.032-.048-.05-.071.052.068.102.137.152.206.116.164.23.328.339.496.441.682.809,1.404,1.139,2.145-.164-.368.082.209.126.323.072.187.14.375.206.564.138.396.263.796.38,1.199.3,1.037,1.409,1.686,2.46,1.397,1.034-.284,1.698-1.419,1.397-2.46h0Z"/><path class="d" d="M328.51,178.761v-2.42c.77.04,1.55.11,2.32.19,1,.11,1.99.25,2.99.42,4.53.76,9.16-.85,12.02-4.44,7.7-9.65,14.02-20.39,18.72-31.81,19.4,7.34,30.35,38.12,16.84,55.89-3.4,4.46-7.77,8.07-12.71,10.93.38.49.65.84.65.84,5.81,4.39,8.62,12.4,6.81,19.45,0,0-.05.22-.13.56-16.77,2.25-33.61,3.4-50.51,4.27-10.93.57-23.27,1.83-33.59-2.43,1.89-1.57,3.42-3.58,4.64-5.73,6.04-10.64,7.71-23.77,8.87-36.15,7.39-3.08,14.14-5.88,23.08-9.57Z"/><path class="d" d="M398.607,218.419c1.14,1.98,1.78,4.35,1.29,6.59-.88,4-5.18,5.36-8.82,5.34-5.18-.03-9.92-2.72-14.2-5.39l-.25-.02c.52-6.26-2.25-12.78-7.29-16.57l-.53-.92c3.33-1.93,6.39-4.21,9.07-6.86l2.38,1.06c3.49,2.22,6.83,4.65,9.88,7.43,3.01,2.74,6.42,5.8,8.47,9.34Z"/><path class="g" d="M301.568,192.083c9.15-3.813,18.309-7.604,27.471-11.39.998-.412,1.708-1.327,1.397-2.46-.259-.943-1.456-1.812-2.46-1.397-9.161,3.786-18.321,7.577-27.471,11.39-.996.415-1.709,1.325-1.397,2.46.259.941,1.457,1.815,2.46,1.397h0Z"/><path class="d" d="M276.469,155.336l-2.839,4.221c-.834,1.095-2.522,2.915-3.177,3.35-2.972,1.972-8.437.794-11.949.577-5.412-.334-14.825.426-23.059,7.482-4.55,3.899-7.823,9.475-9.292,14.344-3.781,12.526-.008,20.149,2.717,24.524,2.725,4.375,6.485,7.705,10.503,10.194,8.42,5.215,16.268,4.385,17.874,4.028,5.595-1.245,8.331-2.634,16.92-10.485,1.603-.563,3.229-.7,4.767-.061.783.325,1.643.473,2.458.253,2.154-.588,1.758-2.533,1.987-4.122.149-1.051.583-1.957,1.172-2.786.995-.898,2.651-2.573,4.073-4.372.936-1.185,1.773-2.429,2.241-3.536,1.009-2.36.925-4.263.378-5.86-1.072-3.131-3.435-6.693-5.747-8.364-.555-.4-.718-1.158-.39-1.76.055-.096,1.588-2.078,2.827-4.332"/><path class="h" d="M238.495,168.66c7.416-4.919,15.256-5.47,20.009-5.176,2.367.146,5.622.729,8.402.489.806,4.721-.61,12.412-2.698,15.777,0,0-.07.113-.2.316-2.332-.18-4.595.481-6.793,2.085-1.37,1-2.581,2.776-2.497,4.444.056,1.121.68,2.14,1.683,2.895.212.16.426.293.642.406-1.756,4.721-2.869,5.982-3.397,9.257-.847,7.021-.058,17.55,8.178,23.542-1.423.585-2.866.979-4.577,1.36-1.606.357-9.454,1.187-17.874-4.028-4.018-2.489-7.778-5.819-10.503-10.194-2.725-4.375-6.498-11.997-2.717-24.524,1.469-4.869,4.742-10.445,9.292-14.344,1.002-.859,2.022-1.624,3.05-2.306Z"/><path class="g" d="M286.208,177.62c-.843,1.504-2,2.837-2.827,4.332-.51.922-.57,2.082-.132,3.039.459,1.004,1.411,1.538,2.164,2.302,2.716,2.751,5.347,7.108,3.576,10.979-.998,2.181-2.74,4.06-4.396,5.759-.679.696-1.448,1.308-1.98,2.128-.63.97-1.034,2.074-1.196,3.215-.09.631-.067,1.29-.177,1.914-.131.746-.656.648-1.374.44-2.143-.621-4.001-.847-6.179-.113-4.981,1.68-8.428,5.836-12.905,8.375-2.239,1.27-.226,4.727,2.019,3.454,3.996-2.266,7.133-6.017,11.421-7.78.832-.342,1.738-.604,2.644-.579,1.14.031,2.145.658,3.288.755,2.212.186,4.288-1.058,4.885-3.232.47-1.711.035-3.345,1.36-4.74,1.674-1.763,3.351-3.46,4.763-5.455,1.365-1.928,2.319-4.121,2.466-6.5.137-2.206-.699-4.301-1.683-6.23-1.14-2.235-2.682-4.463-4.633-6.066l-.133-.109c-.39-.438-.502-.441-.335-.008-.041.301.038.369.069.361.192-.044.506-.698.618-.856.767-1.087,1.48-2.207,2.131-3.367,1.26-2.248-2.193-4.267-3.454-2.019h0Z"/><path class="g" d="M265.649,218.18c-1.977,1.414-4.031,2.593-6.368,3.294-.905.272-1.825.483-2.746.69-.094.021-.19.031-.284.049-.289.053.544-.057.035-.004-.301.031-.602.061-.903.08-4.122.263-8.362-.63-12.085-2.399-7.574-3.599-13.942-10.365-16.026-18.603-2.323-9.182.906-19.735,7.236-26.627,6.09-6.63,15.111-9.734,23.997-9.176,4.61.29,10.309,1.795,14.072-1.766,2.274-2.152,3.887-4.796,5.62-7.372,1.441-2.142-2.023-4.146-3.454-2.019l-2.021,3.004c-.935,1.39-1.371,1.979-2.753,3.344-.666.657-1.019.89-2.094,1.142-1.1.257-2.258.239-3.38.193-2.24-.092-4.457-.47-6.697-.561-9.65-.392-19.525,3.206-26.118,10.383-7.1,7.729-10.662,19.123-8.504,29.482,1.841,8.838,8.153,16.327,15.819,20.821,4.711,2.761,10.261,4.362,15.745,4.185,4.678-.151,9.157-1.987,12.929-4.685.877-.627,1.298-1.743.718-2.736-.507-.867-1.853-1.349-2.736-.718h0Z"/><path class="g" d="M269.055,210.818c1.212-.382,3.414-2.134,2.388-4.085-1.634-2.393-4.539-.637-5.319,1.059-.639,1.388.221,3.638,2.931,3.026Z"/><path class="g" d="M287.712,203.565c-1.109-1.412-2.612-2.457-4.116-3.41-.429-.272-1.059-.334-1.541-.202-.464.128-.967.486-1.195.919-.245.464-.368,1.026-.202,1.541.164.506.465.907.919,1.195.627.397,1.247.805,1.835,1.259l-.405-.313c.695.54,1.331,1.145,1.876,1.838.294.375.962.586,1.414.586.491,0,1.076-.218,1.414-.586.35-.381.61-.882.586-1.414l-.071-.532c-.095-.339-.266-.633-.514-.883h0Z"/><path class="g" d="M259.244,188.436c-.622-.042-1.161-.149-1.699-.579-.174-.139-.339-.304-.48-.477-.104-.128.004.021-.133-.209-.199-.334-.043.055-.139-.288-.014-.048-.086-.595-.074-.287,0-.016.037-.622-.011-.307.032-.212.097-.425.168-.626-.078.219.077-.173.109-.234.105-.201.221-.394.347-.582.357-.533.964-1.039,1.537-1.409,3.009-1.937,6.078-1.714,9.279.018.95.514,2.179.236,2.736-.718.533-.911.236-2.221-.718-2.736-2.278-1.232-4.846-2.106-7.469-1.946-2.652.162-5.214,1.224-7.235,2.948-1.919,1.637-3.311,4.405-2.528,6.943.868,2.813,3.515,4.299,6.308,4.49,1.079.074,2-.972,2-2,0-1.144-.918-1.926-2-2h0Z"/><path class="f" d="M256.342,216.434c-3.075-5.622-3.293-12.325-2.695-17.28.447-2.77,1.312-4.1,2.631-7.301"/><path class="g" d="M265.936,180.76c1.411-2.321,2.144-5.1,2.617-7.752.545-3.055.758-6.128.339-9.209-.146-1.071-1.518-1.656-2.46-1.397-1.156.318-1.543,1.386-1.397,2.46-.04-.297-.002.017.01.15.012.134.025.269.035.403.024.313.039.626.048.939.019.661.008,1.323-.025,1.983-.071,1.427-.207,2.533-.448,3.835-.236,1.274-.541,2.538-.941,3.772-.094.291-.193.58-.3.867-.057.153-.117.304-.175.456-.118.305.112-.246-.016.043-.218.492-.46.971-.74,1.431-1.341,2.206,2.117,4.218,3.454,2.019h0Z"/><path class="i" d="M273.301,159.397c1.82-11.325,12.326-19.221,22.919-23.62,21.006-8.724,45.642-8.243,66.306,1.25,1.682.773,2.427,2.747,1.712,4.454-4.665,11.127-10.878,21.599-18.397,31.029-2.866,3.594-7.492,5.202-12.025,4.437-9.258-1.563-18.948-.482-27.62,3.112-1.392,14.572-2.23,31.377-9.639,44.427-1.961,3.453-4.754,6.567-8.506,8.076-6.426,2.585-13.633,3.301-19.681-.543-6.529-4.151-11.119-11.304-13.998-18.335-2.687-6.564-4.105-13.579-5.112-20.6l19.417-7.501c-.236,2.231.247,4.533,1.366,6.478.361.627,1.012,1.092,1.735,1.062,3.866-.161,2.119-10.676,2.079-12.738-.131-6.773-1.636-14.282-.558-20.988"/><path class="g" d="M369.013,145.236c11.629,7.754,18.14,23.677,16.023,37.397-1.134,7.351-4.898,13.44-10.464,18.294-5.867,5.116-13.167,8.44-20.588,10.601-8.484,2.471-17.34,3.515-26.165,3.425-2.575-.026-2.577,3.974,0,4,16.561.169,34.564-3.338,47.853-13.77,6.344-4.98,11.153-11.642,12.871-19.602,1.661-7.692.786-15.862-1.924-23.213-3.026-8.208-8.251-15.695-15.587-20.587-2.148-1.432-4.153,2.031-2.019,3.454h0Z"/><path class="g" d="M360.315,145.418c-4.367,9.271-9.78,18.048-16.186,26.05-.674.843-.823,2.005,0,2.828.699.699,2.15.848,2.828,0,6.628-8.28,12.29-17.262,16.811-26.86,1.091-2.316-2.356-4.349-3.454-2.019h0Z"/><path class="g" d="M292.822,232.693c9.927,3.484,20.682,2.621,30.99,2.044,11.54-.647,23.075-1.291,34.585-2.371,6.549-.615,13.083-1.364,19.599-2.259,1.071-.147,1.656-1.518,1.397-2.46-.317-1.154-1.386-1.544-2.46-1.397-11.277,1.549-22.621,2.578-33.976,3.36-5.647.389-11.298.714-16.951,1.009-5.127.268-10.255.656-15.392.646-5.678-.011-11.343-.538-16.73-2.429-2.434-.854-3.48,3.009-1.063,3.857h0Z"/><path class="g" d="M275.229,159.928c2.044-12.066,13.689-19.374,24.308-23.319,12.878-4.784,27.021-6.229,40.606-4.159,7.717,1.176,15.277,3.417,22.337,6.753,2.315,1.094,4.347-2.354,2.019-3.454-13.291-6.281-28.135-9.04-42.8-7.97-13.699,1-28.215,4.981-39.13,13.627-5.533,4.383-9.998,10.379-11.197,17.458-.18,1.064.281,2.154,1.397,2.46.96.264,2.279-.326,2.46-1.397h0Z"/><path class="g" d="M333,174.809c-9.095-1.237-18.342-.26-26.892,3.139-1.003.399-1.706,1.337-1.397,2.46.262.954,1.451,1.798,2.46,1.397,7.834-3.114,16.395-4.278,24.766-3.139,1.069.145,2.147-.258,2.46-1.397.256-.933-.32-2.314-1.397-2.46h0Z"/><path class="g" d="M368.332,210.092c5.087,3.907,7.418,11.015,5.894,17.191-.617,2.499,3.24,3.565,3.857,1.063,1.995-8.082-1.173-16.67-7.732-21.708-.857-.659-2.24-.132-2.736.718-.603,1.031-.142,2.076.718,2.736h0Z"/><path class="g" d="M379.251,203.373c3.337,2.139,6.533,4.46,9.476,7.121,2.671,2.416,5.484,4.869,7.496,7.886,1.557,2.334,2.998,6.046.5,8.28-1.933,1.728-5.077,1.91-7.514,1.559-4.136-.596-7.834-2.819-11.321-4.986-2.192-1.363-4.203,2.096-2.019,3.454,3.676,2.286,7.595,4.554,11.911,5.328,3.472.623,7.509.464,10.538-1.563,3.531-2.362,4.504-6.688,3.121-10.607-1.434-4.064-4.653-7.323-7.737-10.208-3.866-3.616-7.974-6.86-12.433-9.717-2.174-1.393-4.182,2.068-2.019,3.454h0Z"/><path class="g" d="M246.607,193.888c1.283,8.724,4.086,17.62,8.194,25.436,3.622,6.891,9.292,14.021,16.984,16.464,3.896,1.237,8.114,1.107,12.064.202,3.987-.913,7.768-2.518,10.678-5.46,2.825-2.856,4.713-6.498,6.27-10.161,1.609-3.785,2.815-7.714,3.724-11.723,2.081-9.183,2.74-18.609,3.618-27.961.101-1.077-.992-2-2-2-1.166,0-1.899.92-2,2-.714,7.611-1.269,15.253-2.638,22.783-1.336,7.345-3.352,15.001-7.471,21.324-1.934,2.969-4.52,5.168-7.87,6.353-3.42,1.21-7.135,1.926-10.763,1.388-7.359-1.092-12.781-7.554-16.277-13.654-2.171-3.788-3.769-7.869-5.178-11.993-1.565-4.58-2.773-9.272-3.478-14.063-.157-1.07-1.51-1.658-2.46-1.397-1.147.315-1.555,1.387-1.397,2.46h0Z"/><path class="g" d="M266.678,185.582c-.27,3.21.805,9.68,5.154,9.538,2.532-.083,3.811-2.421,4.188-4.645.411-2.421.276-4.891.068-7.325-.234-2.728-.319-5.46-.542-8.189-.406-4.966-1.072-10.068-.317-15.032.162-1.067-.269-2.15-1.397-2.46-.946-.26-2.297.323-2.46,1.397-.746,4.906-.361,9.795.058,14.712.269,3.154.375,6.312.649,9.464.205,2.358.461,5.136-.091,7.214-.02.076-.277.799-.116.438-.04.089-.3.75-.13.318-.067.08-.138.155-.216.225.21-.151.222-.168.037-.051.251-.094.269-.108.053-.041.272-.024.287-.031.047-.02.247.114.289.097.126-.053-.087-.149-.171-.299-.252-.45-.263-.509-.453-1.043-.604-1.596-.312-1.14-.354-2.27-.255-3.443.216-2.565-3.785-2.551-4,0h0Z"/><path class="d" d="M269.278,179.729c2.145-1.199,3.107-4.274,2.052-6.559-.509-1.102-1.467-1.957-2.587-2.407-.565-.227-1.172-.354-1.781-.359-.619-.005-1.225.296-1.793.301-.114-1.581.278-3.151.044-4.748-.449-3.064-2.418-6.399-5.391-7.546-2.613-1.008-5.645-.683-8.228.255-.812.295-1.6.661-2.342,1.106-6.128,3.677-7.649,10.644-6.218,17.463.706,3.363,1.751,6.636,2.878,9.865.004.011.008.022.012.034,1.02,2.895,4.008,4.475,6.859,3.66,3.703-1.058,8.727-2.474,12.273-3.471,2.54-.714,4.289-3.141,4.248-5.888l-.026-1.706Z"/><path class="g" d="M270.288,181.456c2.713-1.657,4.118-5.123,3.201-8.206-.486-1.633-1.614-3.042-3.086-3.897-.758-.44-1.591-.718-2.453-.852-1.025-.159-1.781.105-2.781.204l2,2c-.083-1.955.27-3.846-.118-5.792-.3-1.507-.921-3.018-1.759-4.305-1.918-2.944-4.827-4.589-8.331-4.796-6.776-.4-13.055,4.084-15.359,10.334-2.41,6.537-.273,13.645,1.851,19.942,1.033,3.062,2.543,5.814,5.926,6.676,3.133.799,6.538-.784,9.522-1.628,1.824-.516,3.648-1.03,5.473-1.543,1.695-.477,3.251-1.016,4.536-2.281,2.132-2.096,2.411-4.767,2.368-7.583-.039-2.572-4.039-2.579-4,0,.023,1.545.177,3.095-.854,4.391-.592.744-1.345,1.11-2.237,1.368-1.373.398-2.753.775-4.129,1.163-2.602.734-5.193,1.531-7.808,2.214-2.145.56-3.879-.758-4.564-2.737-1.729-4.996-3.779-10.538-3.002-15.914.72-4.979,4.102-8.91,9.036-10.103,2.809-.679,5.908-.371,7.784,2.039.757.972,1.271,2.122,1.573,3.311.436,1.722.015,3.494.09,5.244.043.999.885,2.11,2,2,1.009-.099,1.91-.491,2.896-.069.732.314,1.326.918,1.567,1.677.429,1.351-.16,2.954-1.363,3.688-2.193,1.34-.186,4.801,2.019,3.454Z"/></g></svg>